<svg xmlns="http://www.w3.org/2000/svg" xmlns:xlink="http://www.w3.org/1999/xlink" preserveAspectRatio="xMidYMid" width="70" height="117" viewBox="0 0 70 117">
  <defs>
    <style>
      .cls-1 {
        fill: #eee1e4;
        opacity: 0.2;
        fill-rule: evenodd;
      }
    </style>
  </defs>
  <path d="M68.056,117.000 L36.944,117.000 C35.870,117.000 35.000,116.128 35.000,115.050 L35.000,1.950 C35.000,0.872 35.870,0.000 36.944,0.000 L68.056,0.000 C69.130,0.000 70.000,0.872 70.000,1.950 L70.000,115.050 C70.000,116.128 69.130,117.000 68.056,117.000 ZM66.111,3.900 L38.889,3.900 L38.889,15.600 L48.611,15.600 C49.686,15.600 50.556,16.472 50.556,17.550 C50.556,18.628 49.686,19.500 48.611,19.500 L38.889,19.500 L38.889,35.100 L48.611,35.100 C49.686,35.100 50.556,35.972 50.556,37.050 C50.556,38.128 49.686,39.000 48.611,39.000 L38.889,39.000 L38.889,54.600 L48.611,54.600 C49.686,54.600 50.556,55.472 50.556,56.550 C50.556,57.628 49.686,58.500 48.611,58.500 L38.889,58.500 L38.889,74.100 L48.611,74.100 C49.686,74.100 50.556,74.972 50.556,76.050 C50.556,77.128 49.686,78.000 48.611,78.000 L38.889,78.000 L38.889,93.600 L48.611,93.600 C49.686,93.600 50.556,94.472 50.556,95.550 C50.556,96.628 49.686,97.500 48.611,97.500 L38.889,97.500 L38.889,113.100 L66.111,113.100 L66.111,3.900 ZM14.118,117.000 C7.590,117.000 0.000,111.889 0.000,105.300 L0.000,40.950 C0.000,40.655 0.076,40.382 0.192,40.131 C0.200,40.115 0.197,40.095 0.205,40.078 L11.872,16.678 C12.533,15.356 14.690,15.356 15.351,16.678 L27.017,40.078 C27.026,40.095 27.022,40.115 27.030,40.131 C27.147,40.382 27.222,40.655 27.222,40.950 L27.222,105.300 C27.222,111.996 20.305,117.000 14.118,117.000 ZM3.889,89.700 L11.619,89.700 L11.619,42.900 L3.889,42.900 L3.889,89.700 ZM13.611,21.911 L5.091,39.000 L13.376,39.000 C13.457,38.990 13.528,38.952 13.611,38.952 C13.695,38.952 13.766,38.990 13.847,39.000 L22.131,39.000 L13.611,21.911 ZM23.333,42.900 L15.603,42.900 L15.603,89.700 L23.333,89.700 L23.333,42.900 ZM23.333,93.600 L13.847,93.600 C13.766,93.610 13.695,93.648 13.611,93.648 C13.528,93.648 13.457,93.610 13.376,93.600 L3.889,93.600 L3.889,97.500 L23.333,97.500 L23.333,93.600 ZM23.333,101.400 L3.889,101.400 L3.889,105.300 C3.889,109.427 9.608,113.100 14.118,113.100 C18.379,113.100 23.333,109.693 23.333,105.300 L23.333,101.400 Z" class="cls-1"/>
</svg>
